<?xml version="1.0" encoding="UTF-8"?><svg xmlns="http://www.w3.org/2000/svg" xmlns:xlink="http://www.w3.org/1999/xlink" contentScriptType="text/ecmascript" width="375" zoomAndPan="magnify" contentStyleType="text/css" viewBox="0 0 375 374.999991" height="374.999991" preserveAspectRatio="xMidYMid meet" version="1.0"><path fill="rgb(16.079712%, 16.468811%, 17.649841%)" d="M 152.941406 0 L 18.144531 0 C 8.121094 0 0 8.121094 0 18.144531 L 0 152.941406 C 0 162.964844 8.121094 171.085938 18.144531 171.085938 L 152.941406 171.085938 C 162.964844 171.085938 171.085938 162.964844 171.085938 152.941406 L 171.085938 18.144531 C 171.085938 8.121094 162.964844 0 152.941406 0 Z M 134.796875 134.796875 L 36.289062 134.796875 L 36.289062 36.289062 L 134.796875 36.289062 Z M 134.796875 134.796875 " fill-opacity="1" fill-rule="nonzero"/><path fill="rgb(16.079712%, 16.468811%, 17.649841%)" d="M 356.855469 0 L 222.066406 0 C 212.046875 0 203.921875 8.121094 203.921875 18.144531 L 203.921875 152.941406 C 203.921875 162.964844 212.046875 171.085938 222.066406 171.085938 L 356.855469 171.085938 C 366.871094 171.085938 375 162.964844 375 152.941406 L 375 18.144531 C 375 8.121094 366.871094 0 356.855469 0 Z M 338.710938 134.796875 L 240.210938 134.796875 L 240.210938 36.289062 L 338.710938 36.289062 Z M 338.710938 134.796875 " fill-opacity="1" fill-rule="nonzero"/><path fill="rgb(16.079712%, 16.468811%, 17.649841%)" d="M 152.941406 203.914062 L 18.144531 203.914062 C 8.121094 203.914062 0 212.035156 0 222.058594 L 0 356.855469 C 0 366.878906 8.121094 375 18.144531 375 L 152.941406 375 C 162.964844 375 171.085938 366.878906 171.085938 356.855469 L 171.085938 222.058594 C 171.085938 212.035156 162.964844 203.914062 152.941406 203.914062 Z M 134.796875 338.710938 L 36.289062 338.710938 L 36.289062 240.203125 L 134.796875 240.203125 Z M 134.796875 338.710938 " fill-opacity="1" fill-rule="nonzero"/><path fill="rgb(16.079712%, 16.468811%, 17.649841%)" d="M 289.460938 203.914062 C 242.289062 203.914062 203.921875 242.289062 203.921875 289.460938 C 203.921875 336.625 242.289062 375 289.460938 375 C 336.628906 375 375 336.625 375 289.460938 C 375 242.289062 336.628906 203.914062 289.460938 203.914062 Z M 289.460938 338.710938 C 262.300781 338.710938 240.210938 316.617188 240.210938 289.460938 C 240.210938 262.300781 262.300781 240.203125 289.460938 240.203125 C 316.617188 240.203125 338.710938 262.300781 338.710938 289.460938 C 338.710938 316.617188 316.617188 338.710938 289.460938 338.710938 Z M 289.460938 338.710938 " fill-opacity="1" fill-rule="nonzero"/></svg>