<svg width="120" height="75" viewBox="0 0 120 75" fill="#FFFFFF" xmlns="http://www.w3.org/2000/svg">
<path d="M8.18023 35.5646C7.50422 37.594 5.33343 38.6854 3.3306 37.9985C1.32918 37.3145 0.254302 35.1119 0.930307 33.0825C1.60631 31.0531 3.77707 29.9617 5.7799 30.6486C7.78132 31.3341 8.85623 33.5352 8.18023 35.5646Z" fill="#FFFFFF"/>
<path d="M78.0747 56.3172C78.3854 56.1143 78.6262 55.7949 78.7241 55.4018C82.2119 41.5294 75.2503 34.6791 75.0334 34.0958C74.7381 33.3011 73.8619 32.8994 73.0767 33.1974C72.2986 33.4926 71.8941 34.3825 72.188 35.1814C72.237 35.3163 79.0236 41.7281 75.778 54.6412C75.5708 55.4671 76.0621 56.3058 76.8753 56.5159C77.3007 56.6252 77.7318 56.5414 78.0747 56.3172Z" fill="#FFFFFF"/>
<path d="M68.0592 38.1376C67.6099 40.2323 65.5721 41.5592 63.5063 41.105C61.4419 40.6495 60.1319 38.5818 60.5812 36.4885C61.029 34.3952 63.0668 33.0668 65.1326 33.521C67.1984 33.9765 68.5085 36.0429 68.0592 38.1376Z" fill="#FFFFFF"/>
<path d="M78.8305 34.2036C78.3826 36.2898 76.3518 37.6139 74.2944 37.1598C72.237 36.707 70.9312 34.6478 71.3776 32.5616C71.8255 30.4754 73.8563 29.1514 75.9137 29.6041C77.9711 30.0596 79.2769 32.1174 78.8305 34.2036Z" fill="#FFFFFF"/>
<path d="M75.3427 29.6708C74.5631 29.6168 73.7905 29.8183 73.1201 30.254C72.2972 30.7919 71.7275 31.6221 71.5204 32.5928C71.0907 34.5967 72.3489 36.5807 74.3252 37.0178C76.3 37.4521 78.2595 36.1762 78.6891 34.1724C79.1174 32.1685 77.8592 30.1831 75.8829 29.7488C75.7038 29.7076 75.5232 29.6835 75.3427 29.6708ZM74.8402 37.3868C74.6485 37.374 74.4567 37.3457 74.2636 37.3045C72.132 36.8333 70.773 34.6918 71.2377 32.5318C71.4616 31.483 72.076 30.5875 72.9648 30.0071C73.8549 29.4266 74.913 29.2337 75.9445 29.4622C78.0761 29.9319 79.4337 32.0734 78.9718 34.2348C78.5492 36.2018 76.7647 37.5174 74.8402 37.3868Z" fill="#FFFFFF"/>
<path d="M81.3106 55.3521C80.8627 57.444 78.8249 58.7723 76.7619 58.3182C74.6975 57.8626 73.3888 55.7978 73.8367 53.7059C74.286 51.6112 76.3224 50.2843 78.3854 50.7398C80.4498 51.194 81.7599 53.2589 81.3106 55.3521Z" fill="#FFFFFF"/>
<path d="M89.9503 51.7474C89.5025 53.8393 87.4647 55.1676 85.4017 54.7135C83.3359 54.2579 82.0272 52.1916 82.4751 50.0998C82.9243 48.0065 84.9622 46.6795 87.0252 47.1337C89.0896 47.5878 90.3996 49.6541 89.9503 51.7474Z" fill="#FFFFFF"/>
<path d="M110.275 71.227C109.85 73.3245 107.829 74.6756 105.76 74.2441C103.69 73.8141 102.359 71.7634 102.783 69.6673C103.209 67.5683 105.23 66.2173 107.3 66.6487C109.368 67.0801 110.701 69.1294 110.275 71.227Z" fill="#FFFFFF"/>
<path d="M92.6361 23.9004C92.1868 25.9937 90.1504 27.3221 88.086 26.868C86.0216 26.4124 84.7115 24.3461 85.1608 22.2542C85.6087 20.1595 87.6465 18.8312 89.7109 19.2867C91.7753 19.7423 93.0853 21.8072 92.6361 23.9004Z" fill="#FFFFFF"/>
<path d="M66.8569 25.2416C66.4076 27.3363 64.3698 28.6646 62.304 28.209C60.2382 27.7549 58.9282 25.6872 59.3761 23.5939C59.8253 21.4978 61.8646 20.1709 63.929 20.625C65.9948 21.0805 67.3048 23.1469 66.8569 25.2416Z" fill="#FFFFFF"/>
<path d="M99.1092 15.9516C98.6599 18.0477 96.6207 19.3761 94.5549 18.9205C92.4891 18.4664 91.1777 16.3987 91.627 14.304C92.0763 12.2078 94.1155 10.8795 96.1813 11.3336C98.2471 11.7906 99.5585 13.8583 99.1092 15.9516Z" fill="#FFFFFF"/>
<path d="M81.7543 8.39881C81.305 10.4935 79.2672 11.8233 77.2014 11.3677C75.1356 10.9122 73.8255 8.84445 74.2748 6.75117C74.7227 4.65647 76.7619 3.3281 78.8277 3.78224C80.8921 4.23779 82.2035 6.30411 81.7543 8.39881Z" fill="#FFFFFF"/>
<path d="M102.211 5.2766C101.761 7.3713 99.7222 8.70109 97.655 8.24411C95.5892 7.78998 94.2778 5.72224 94.7285 3.62754C95.1764 1.53142 97.2155 0.20163 99.2813 0.657184C101.349 1.11274 102.66 3.18048 102.211 5.2766Z" fill="#FFFFFF"/>
<path d="M104.477 36.5637C104.029 38.6584 101.988 39.9882 99.9224 39.5326C97.8552 39.0771 96.5438 37.0093 96.9931 34.9132C97.4437 32.8185 99.483 31.4888 101.549 31.9457C103.616 32.3999 104.926 34.4676 104.477 36.5637Z" fill="#FFFFFF"/>
<path d="M62.612 26.2009L62.3629 23.0078C63.2208 22.9368 83.452 21.3104 89.1834 22.731L88.4388 25.8447C88.38 25.8291 88.3184 25.8149 88.2568 25.8022C83.6773 24.8045 68.2482 25.7468 62.612 26.2009Z" fill="#FFFFFF"/>
<path d="M84.8627 51.1499C84.7172 50.3921 81.4043 32.4836 89.1091 22.8332L91.564 24.8484C84.7885 33.3351 87.9307 50.3694 87.9643 50.5397L84.8627 51.1499Z" fill="#FFFFFF"/>
<path d="M100.034 38.3675C99.4814 38.3306 98.9636 37.9985 98.7102 37.4549L94.7144 28.8874C94.4233 28.2672 94.5577 27.5264 95.0461 27.0496L103.13 19.1547C103.495 18.7971 104.012 18.6396 104.512 18.7332C104.548 18.7389 108.289 19.4215 112.807 19.1419C115.119 18.9986 116.012 17.6319 116.355 16.6343L97.9629 6.38216C97.1987 5.95499 96.9187 4.98143 97.34 4.20656C97.7599 3.43169 98.7201 3.14928 99.4843 3.57362L118.899 14.3962C119.437 14.6971 119.755 15.2861 119.714 15.9091C119.575 17.9981 117.994 22.0285 113 22.3379C109.329 22.5664 106.186 22.2187 104.757 22.0143L98.0553 28.5582L101.565 36.0855C101.939 36.8845 101.602 37.8396 100.814 38.2171C100.562 38.3391 100.293 38.386 100.034 38.3675Z" fill="#FFFFFF"/>
<path d="M30.4338 46.4156C25.7591 46.0963 21.7661 45.2206 18.4938 44.1775C7.97024 40.8198 2.50483 35.1488 2.2767 34.9103C1.76304 34.3668 1.69026 33.5351 2.10175 32.9093C2.51463 32.2848 3.2998 32.0337 3.9912 32.3076C4.30331 32.4296 35.5045 44.3904 56.0618 20.1169C66.4538 7.84386 77.3693 6.4034 77.8283 6.34805C77.9739 6.33102 78.1222 6.33387 78.2664 6.35658C85.0474 7.46779 90.1686 9.14524 93.487 11.345C96.1854 13.1331 96.7831 14.7127 96.8754 15.0107L93.8607 15.9686C93.8607 15.9686 93.8663 15.997 93.8873 16.0481C93.8705 16.007 91.946 11.8871 78.0075 9.55966C76.5575 9.81227 67.267 11.8005 58.4579 22.203C46.928 35.8172 32.403 38.6498 22.2489 38.6286C18.1047 38.6186 14.3636 38.1588 11.2971 37.5798C13.5336 38.8429 16.3146 40.1385 19.6177 41.1774C28.6871 44.0285 43.688 45.486 63.6644 36.2174C64.458 35.8512 65.3943 36.2032 65.7568 37.0079C66.1207 37.8111 65.7722 38.762 64.9786 39.1309C51.131 45.5555 39.5046 47.0343 30.4338 46.4156Z" fill="#FFFFFF"/>
<path d="M103.484 71.525C103.472 71.5009 102.201 69.0046 98.3982 66.0598C94.86 63.3179 88.3505 59.6252 77.442 57.5831L78.0145 54.4339C100.565 58.6503 106.095 69.6432 106.319 70.1087L103.48 71.5151L104.899 70.8112L103.484 71.525Z" fill="#FFFFFF"/>
<path d="M105.328 72.3794C105.321 72.351 104.701 69.6149 101.735 65.8058C98.9763 62.2621 93.5724 57.0481 83.5023 52.3308L84.8264 49.4229C105.643 59.1726 108.316 71.2129 108.419 71.7195L105.325 72.368L106.871 72.0445L105.328 72.3794Z" fill="#FFFFFF"/>
</svg>
